<?xml version="1.0" standalone="no"?>
<!DOCTYPE svg PUBLIC "-//W3C//DTD SVG 20010904//EN"
 "http://www.w3.org/TR/2001/REC-SVG-20010904/DTD/svg10.dtd">
<svg version="1.0" xmlns="http://www.w3.org/2000/svg"
 width="228.000000pt" height="170.000000pt" viewBox="0 0 228.000000 170.000000"
 preserveAspectRatio="xMidYMid meet">

<g transform="translate(0.000000,170.000000) scale(0.100000,-0.100000)"
fill="#000000" stroke="none">
<path d="M534 1465 c-4 -8 -1 -22 6 -30 11 -13 99 -15 661 -15 636 0 649 0
669 -20 27 -27 27 -94 0 -138 -12 -19 -38 -41 -63 -52 -40 -19 -73 -20 -735
-20 -691 0 -693 0 -682 20 6 11 29 33 52 48 l42 27 655 5 656 5 0 25 0 25
-660 0 c-735 0 -686 4 -763 -69 -68 -63 -76 -92 -80 -278 l-4 -168 31 0 31 0
0 125 c0 120 1 127 25 150 l24 25 688 0 c724 1 735 2 784 46 19 17 19 11 19
-423 l0 -440 -23 -21 -23 -22 -725 0 -726 0 -21 23 c-20 21 -22 34 -22 155 l0
132 -30 0 -30 0 0 -137 c0 -119 3 -142 20 -170 40 -66 3 -63 812 -63 709 0
734 1 765 20 65 39 63 23 63 620 0 464 -2 545 -15 570 -32 62 -10 60 -735 60
-580 0 -661 -2 -666 -15z"/>
<path d="M630 955 c0 -87 3 -105 15 -105 12 0 15 14 15 70 0 39 4 70 8 70 5 0
19 -11 32 -25 30 -31 37 -31 72 2 l28 27 0 -72 c0 -65 2 -72 20 -72 19 0 20 7
20 99 0 61 -4 102 -11 107 -6 3 -27 -10 -48 -30 -20 -20 -41 -36 -47 -36 -6 0
-25 16 -44 35 -54 56 -60 50 -60 -70z"/>
<path d="M909 1031 c-24 -24 -29 -38 -29 -76 0 -38 5 -52 29 -76 24 -24 38
-29 76 -29 66 0 105 39 105 105 0 66 -39 105 -105 105 -38 0 -52 -5 -76 -29z
m122 -30 c16 -16 29 -37 29 -46 0 -9 -13 -30 -29 -46 -16 -16 -37 -29 -46 -29
-9 0 -30 13 -46 29 -16 16 -29 37 -29 46 0 21 54 75 75 75 9 0 30 -13 46 -29z"/>
<path d="M1140 955 c0 -85 3 -105 15 -105 11 0 15 19 17 88 l3 87 58 3 c74 4
76 -21 2 -45 -40 -13 -38 -36 3 -44 39 -8 72 -35 72 -60 0 -23 18 -35 32 -21
14 14 2 58 -22 82 -19 19 -19 20 5 56 42 61 38 64 -80 64 l-105 0 0 -105z"/>
<path d="M1394 1047 c-2 -7 -3 -56 -2 -108 l3 -94 105 0 c87 0 105 3 105 15 0
12 -18 16 -87 18 -85 3 -88 3 -88 27 0 21 5 24 48 27 34 2 47 7 47 18 0 11
-13 16 -47 18 -43 3 -48 6 -48 27 0 24 3 24 88 27 69 2 87 6 87 18 0 21 -203
28 -211 7z"/>
<path d="M625 578 c-3 -8 -4 -57 -3 -109 l3 -94 105 0 c87 0 105 3 105 15 0
12 -18 16 -87 18 l-87 3 -3 86 c-2 58 -7 88 -15 91 -7 2 -15 -3 -18 -10z"/>
<path d="M874 577 c-2 -7 -3 -56 -2 -108 l3 -94 105 0 c87 0 105 3 105 15 0
12 -18 16 -87 18 -85 3 -88 3 -88 27 0 21 5 24 48 27 34 2 47 7 47 18 0 11
-13 16 -47 18 -43 3 -48 6 -48 27 0 24 3 24 88 27 69 2 87 6 87 18 0 21 -203
28 -211 7z"/>
<path d="M1150 570 c-23 -23 -26 -58 -6 -86 11 -15 30 -20 88 -24 65 -4 73 -7
73 -25 0 -18 -8 -20 -85 -25 -67 -4 -85 -8 -85 -20 0 -12 18 -16 87 -18 77 -2
90 0 108 18 23 23 26 58 6 86 -11 15 -30 20 -88 24 -65 4 -73 7 -73 25 0 18 8
20 85 25 67 4 85 8 85 20 0 12 -18 16 -87 18 -77 2 -90 0 -108 -18z"/>
<path d="M1400 570 c-23 -23 -26 -58 -6 -86 11 -15 30 -20 88 -24 65 -4 73 -7
73 -25 0 -18 -8 -20 -85 -25 -67 -4 -85 -8 -85 -20 0 -12 18 -16 87 -18 77 -2
90 0 108 18 23 23 26 58 6 86 -11 15 -30 20 -88 24 -65 4 -73 7 -73 25 0 18 8
20 85 25 67 4 85 8 85 20 0 12 -18 16 -87 18 -77 2 -90 0 -108 -18z"/>
</g>
</svg>
